<svg width="24" height="25" viewBox="0 0 24 25" fill="none" xmlns="http://www.w3.org/2000/svg">
<path d="M8 16.8C10.2 16.8 12 14.97 12 12.75C12 11.59 11.43 10.49 10.29 9.56C9.15 8.63 8.29 7.25 8 5.8C7.71 7.25 6.86 8.64 5.71 9.56C4.56 10.48 4 11.6 4 12.75C4 14.97 5.8 16.8 8 16.8Z" stroke="#3B82F6" stroke-width="2" stroke-linecap="round" stroke-linejoin="round"/>
<path d="M13.56 7.1C14.2472 6.00084 14.7347 4.78886 15 3.52C15.5 6.02 17 8.42 19 10.02C21 11.62 22 13.52 22 15.52C22.0057 16.9023 21.6008 18.2552 20.8368 19.4071C20.0727 20.559 18.9838 21.4582 17.7081 21.9905C16.4324 22.5228 15.0274 22.6644 13.6711 22.3973C12.3149 22.1301 11.0685 21.4663 10.09 20.49" stroke="#3B82F6" stroke-width="2" stroke-linecap="round" stroke-linejoin="round"/>
</svg>
