<svg width="10" height="19" viewBox="0 0 10 19" fill="none" xmlns="http://www.w3.org/2000/svg">
<path d="M5 18.5C3.61667 18.5 2.43767 18.0123 1.463 17.037C0.488334 16.0617 0.000666667 14.8827 0 13.5C0 12.7 0.175 11.954 0.525 11.262C0.875 10.57 1.36667 9.98267 2 9.5V3.5C2 2.66667 2.29167 1.95833 2.875 1.375C3.45833 0.791667 4.16667 0.5 5 0.5C5.83333 0.5 6.54167 0.791667 7.125 1.375C7.70833 1.95833 8 2.66667 8 3.5V9.5C8.63333 9.98333 9.125 10.571 9.475 11.263C9.825 11.955 10 12.7007 10 13.5C10 14.8833 9.51233 16.0627 8.537 17.038C7.56167 18.0133 6.38267 18.5007 5 18.5ZM5 16.5C5.83333 16.5 6.54167 16.2083 7.125 15.625C7.70833 15.0417 8 14.3333 8 13.5C8 13.0167 7.896 12.5667 7.688 12.15C7.48 11.7333 7.184 11.3833 6.8 11.1L6 10.5V3.5C6 3.21667 5.904 2.97933 5.712 2.788C5.52 2.59667 5.28267 2.50067 5 2.5C4.71733 2.49933 4.48 2.59533 4.288 2.788C4.096 2.98067 4 3.218 4 3.5V10.5L3.2 11.1C2.81667 11.3833 2.52067 11.7333 2.312 12.15C2.10333 12.5667 1.99933 13.0167 2 13.5C2 14.3333 2.29167 15.0417 2.875 15.625C3.45833 16.2083 4.16667 16.5 5 16.5Z" fill="#FF3838"/>
</svg>
