<svg width="24" height="24" viewBox="0 0 24 24" fill="none" xmlns="http://www.w3.org/2000/svg">
<path d="M2.69996 17.625C2.49996 17.425 2.40396 17.1877 2.41196 16.913C2.41996 16.6383 2.51596 16.409 2.69996 16.225L7.97496 10.875C8.35829 10.4917 8.83329 10.3 9.39996 10.3C9.96663 10.3 10.4416 10.4917 10.825 10.875L13.4 13.475L18.6 8.32501H17C16.7166 8.32501 16.4793 8.22901 16.288 8.03701C16.0966 7.84501 16.0006 7.60801 16 7.32601C15.9993 7.04401 16.0953 6.80667 16.288 6.61401C16.4806 6.42134 16.718 6.32534 17 6.32601H21C21.2833 6.32601 21.521 6.42201 21.713 6.61401C21.905 6.80601 22.0006 7.04334 22 7.32601V11.326C22 11.6093 21.904 11.847 21.712 12.039C21.52 12.231 21.2826 12.3267 21 12.326C20.7173 12.3253 20.48 12.2297 20.288 12.039C20.096 11.8483 20 11.6107 20 11.326V9.72601L14.825 14.9C14.4416 15.2833 13.9666 15.475 13.4 15.475C12.8333 15.475 12.3583 15.2833 11.975 14.9L9.39996 12.325L4.09996 17.625C3.91663 17.8083 3.68329 17.9 3.39996 17.9C3.11663 17.9 2.88329 17.8083 2.69996 17.625Z" fill="#F97316"/>
</svg>
